<svg xmlns="http://www.w3.org/2000/svg" xmlns:xlink="http://www.w3.org/1999/xlink" viewBox="0,0,256,256" width="48px" height="48px"><g fill="#ffffff" fill-rule="nonzero" stroke="none" stroke-width="1" stroke-linecap="butt" stroke-linejoin="miter" stroke-miterlimit="10" stroke-dasharray="" stroke-dashoffset="0" font-family="none" font-weight="none" font-size="none" text-anchor="none" style="mix-blend-mode: normal"><g transform="scale(10.66667,10.66667)"><path d="M12.07227,2.39648c-0.25363,0.0335 -0.49606,0.16281 -0.66406,0.38281c-0.336,0.44 -0.2505,1.06634 0.1875,1.40234l3.03516,2.31836h-10.38086c-0.69,0 -1.25,0.56 -1.25,1.25c0,0.69 0.56,1.25 1.25,1.25h4.00195l-6.6875,5.32617c-0.648,0.516 -0.75428,1.46042 -0.23828,2.10742c0.297,0.373 0.73478,0.56641 1.17578,0.56641c0.328,0 0.65759,-0.10517 0.93359,-0.32617l3.57031,-2.8457c0.047,3.967 3.60514,7.17188 7.99414,7.17188c4.418,0 8,-3.246 8,-7.25c0,-2.157 -1.04436,-4.08802 -2.69336,-5.41602c-0.015,-0.013 -0.02206,-0.03292 -0.03906,-0.04492l-7.45703,-5.69727c-0.2195,-0.166 -0.48466,-0.22881 -0.73828,-0.19531zM15.02344,9.0332c2.755,0 4.98828,1.89723 4.98828,4.24023c0,2.34 -2.23328,4.23633 -4.98828,4.23633c-2.753,0 -4.98438,-1.89633 -4.98438,-4.23633c0,-2.342 2.23238,-4.24023 4.98438,-4.24023zM15.02344,10.19922c-1.803,0 -3.26367,1.22533 -3.26367,2.73633c0,1.509 1.46067,2.73242 3.26367,2.73242c1.805,0 3.26758,-1.22342 3.26758,-2.73242c0,-1.511 -1.46258,-2.73633 -3.26758,-2.73633z"></path></g></g></svg>