<?xml version="1.0" encoding="UTF-8"?>
<svg id="Calque_1" data-name="Calque 1" xmlns="http://www.w3.org/2000/svg" viewBox="0 0 50 50">
  <defs>
    <style>
      .cls-1 {
        fill: #fff;
        stroke-width: 0px;
      }
    </style>
  </defs>
  <path class="cls-1" d="M24.79,25.86h-3.88v6.05h4.05c2.65,0,4.05-1.05,4.05-3.05s-1.42-3.01-4.22-3.01Z"/>
  <path class="cls-1" d="M28.14,20.73c0-1.71-1.18-2.65-3.32-2.65h-3.9v5.48h3.28c2.54,0,3.94-1.01,3.94-2.84Z"/>
  <path class="cls-1" d="M42.92,19.59c-.75-2.48-.85-5.53-.77-7.88.08-2.45-1.77-4.71-4.29-4.71H12.14c-2.51,0-4.37,2.26-4.28,4.71.08,2.35-.02,5.4-.77,7.88-.75,2.49-2.02,4.07-4.08,4.27v2.29c2.07.2,3.34,1.78,4.08,4.27.75,2.48.85,5.53.77,7.88-.08,2.45,1.77,4.71,4.28,4.71h25.73c2.51,0,4.37-2.26,4.29-4.71-.08-2.35.02-5.4.77-7.88.75-2.49,2.01-4.07,4.08-4.27v-2.29c-2.07-.2-3.33-1.78-4.08-4.27ZM30.38,32.95c-1.14.93-2.8,1.41-4.81,1.41h-7.71V15.63h7.67c1.67,0,3.09.44,4.1,1.28,1.02.84,1.55,2.02,1.55,3.42,0,1.97-1.49,3.76-3.4,4.09v.03c2.6.3,4.34,2.15,4.34,4.6,0,1.62-.6,2.97-1.75,3.9Z"/>
</svg>