<svg xmlns="http://www.w3.org/2000/svg" xmlns:xlink="http://www.w3.org/1999/xlink" viewBox="0,0,256,256" width="48px" height="48px"><g fill="#ffffff" fill-rule="nonzero" stroke="none" stroke-width="1" stroke-linecap="butt" stroke-linejoin="miter" stroke-miterlimit="10" stroke-dasharray="" stroke-dashoffset="0" font-family="none" font-weight="none" font-size="none" text-anchor="none" style="mix-blend-mode: normal"><g transform="scale(5.33333,5.33333)"><path d="M40.814,7.171l-2.704,31.549c-0.067,0.78 -0.583,1.449 -1.32,1.713l-11.781,4.207c-0.652,0.233 -1.366,0.233 -2.018,0l-11.781,-4.208c-0.737,-0.263 -1.253,-0.933 -1.32,-1.713l-2.704,-31.548c-0.1,-1.168 0.821,-2.171 1.993,-2.171h29.642c1.172,0 2.093,1.003 1.993,2.171zM35,12h-21.99l1.16,13h15.74l-0.57,6.48l-5.34,1.27l-5.33,-1.26l-0.3,-3.49h-4.01l0.57,6.71l9.07,2.14l9.06,-2.14l1.23,-13.71h-16.46l-0.44,-5h17.31z"></path></g></g></svg>