<svg width="105" height="105" viewBox="0 0 105 105" fill="none" xmlns="http://www.w3.org/2000/svg">
<circle cx="52.5" cy="52.5" r="52.5" fill="#B94E56"/>
<path d="M82.7077 40.0512C81.8259 39.1696 80.63 38.6744 79.383 38.6744C78.1361 38.6744 76.9402 39.1696 76.0583 40.0512L52.7807 63.3288L29.5032 40.0512C28.6163 39.1946 27.4284 38.7206 26.1954 38.7313C24.9624 38.742 23.7829 39.2366 22.9111 40.1085C22.0392 40.9804 21.5446 42.1598 21.5339 43.3928C21.5232 44.6258 21.9972 45.8137 22.8538 46.7006L49.4561 73.3028C50.3379 74.1844 51.5338 74.6797 52.7807 74.6797C54.0277 74.6797 55.2236 74.1844 56.1054 73.3028L82.7077 46.7006C83.5893 45.8187 84.0846 44.6228 84.0846 43.3759C84.0846 42.1289 83.5893 40.933 82.7077 40.0512Z" fill="#383852"/>
</svg>
